RobotoSerifDisplay-SuperWidth1800.ufo
<glyph name="exclam" format="2">
  <advance width="408"/>
  <unicode hex="0021"/>
  <outline>
    <contour>
      <point x="358" y="732" type="line"/>
      <point x="358" y="551"/>
      <point x="249" y="449"/>
      <point x="249" y="235" type="curve"/>
      <point x="159" y="235" type="line"/>
      <point x="159" y="449"/>
      <point x="50" y="550"/>
      <point x="50" y="732" type="curve"/>
    </contour>
    <component base="period" xOffset="73"/>
  </outline>
</glyph>
<glyph name="period" format="2">
  <advance width="336"/>
  <unicode hex="002E"/>
  <outline>
    <contour>
      <point x="294" y="68" type="curve" smooth="yes"/>
      <point x="294" y="112"/>
      <point x="248" y="143"/>
      <point x="168" y="143" type="curve" smooth="yes"/>
      <point x="88" y="143"/>
      <point x="41" y="112"/>
      <point x="41" y="68" type="curve" smooth="yes"/>
      <point x="41" y="24"/>
      <point x="88" y="-8"/>
      <point x="168" y="-8" type="curve" smooth="yes"/>
      <point x="248" y="-8"/>
      <point x="294" y="24"/>
    </contour>
  </outline>
</glyph>
<glyph name="zero" format="2">
  <advance width="707"/>
  <unicode hex="0030"/>
  <outline>
    <contour>
      <point x="353" y="-10" type="curve" smooth="yes"/>
      <point x="553" y="-10"/>
      <point x="694" y="112"/>
      <point x="694" y="304" type="curve" smooth="yes"/>
      <point x="694" y="498"/>
      <point x="553" y="619"/>
      <point x="353" y="619" type="curve" smooth="yes"/>
      <point x="154" y="619"/>
      <point x="12" y="498"/>
      <point x="12" y="304" type="curve" smooth="yes"/>
      <point x="12" y="112"/>
      <point x="154" y="-10"/>
    </contour>
    <contour>
      <point x="353" y="30" type="curve" smooth="yes"/>
      <point x="309" y="30"/>
      <point x="295" y="102"/>
      <point x="295" y="304" type="curve" smooth="yes"/>
      <point x="295" y="508"/>
      <point x="309" y="579"/>
      <point x="353" y="579" type="curve" smooth="yes"/>
      <point x="398" y="579"/>
      <point x="412" y="508"/>
      <point x="412" y="304" type="curve" smooth="yes"/>
      <point x="412" y="102"/>
      <point x="398" y="30"/>
    </contour>
  </outline>
</glyph>
<glyph name="eight" format="2">
  <advance width="707"/>
  <unicode hex="0038"/>
  <outline>
    <contour>
      <point x="353" y="31" type="curve" smooth="yes"/>
      <point x="312" y="31"/>
      <point x="290" y="82"/>
      <point x="290" y="196" type="curve" smooth="yes"/>
      <point x="290" y="312"/>
      <point x="311" y="356"/>
      <point x="353" y="356" type="curve" smooth="yes"/>
      <point x="396" y="356"/>
      <point x="417" y="312"/>
      <point x="417" y="196" type="curve" smooth="yes"/>
      <point x="417" y="82"/>
      <point x="395" y="31"/>
    </contour>
    <contour>
      <point x="353" y="-10" type="curve" smooth="yes"/>
      <point x="571" y="-10"/>
      <point x="699" y="75"/>
      <point x="699" y="198" type="curve" smooth="yes"/>
      <point x="699" y="320"/>
      <point x="564" y="393"/>
      <point x="353" y="393" type="curve" smooth="yes"/>
      <point x="143" y="393"/>
      <point x="8" y="320"/>
      <point x="8" y="198" type="curve" smooth="yes"/>
      <point x="8" y="75"/>
      <point x="136" y="-10"/>
    </contour>
    <contour>
      <point x="353" y="396" type="curve" smooth="yes"/>
      <point x="317" y="396"/>
      <point x="299" y="435"/>
      <point x="299" y="536" type="curve" smooth="yes"/>
      <point x="299" y="639"/>
      <point x="317" y="679"/>
      <point x="353" y="679" type="curve" smooth="yes"/>
      <point x="390" y="679"/>
      <point x="408" y="639"/>
      <point x="408" y="536" type="curve" smooth="yes"/>
      <point x="408" y="435"/>
      <point x="390" y="396"/>
    </contour>
    <contour>
      <point x="353" y="364" type="curve" smooth="yes"/>
      <point x="548" y="364"/>
      <point x="665" y="430"/>
      <point x="665" y="540" type="curve" smooth="yes"/>
      <point x="665" y="646"/>
      <point x="547" y="720"/>
      <point x="353" y="720" type="curve" smooth="yes"/>
      <point x="159" y="720"/>
      <point x="41" y="646"/>
      <point x="41" y="540" type="curve" smooth="yes"/>
      <point x="41" y="430"/>
      <point x="158" y="364"/>
    </contour>
  </outline>
</glyph>
<glyph name="Q" format="2">
  <advance width="1028"/>
  <unicode hex="0051"/>
  <outline>
    <contour>
      <point x="486" y="2" type="curve"/>
      <point x="480" y="-146"/>
      <point x="575" y="-208"/>
      <point x="763" y="-208" type="curve" smooth="yes"/>
      <point x="835" y="-208"/>
      <point x="906" y="-196"/>
      <point x="944" y="-182" type="curve"/>
      <point x="944" y="-56" type="line"/>
      <point x="914" y="-62"/>
      <point x="837" y="-92"/>
      <point x="751" y="-92" type="curve" smooth="yes"/>
      <point x="631" y="-92"/>
      <point x="565" y="-70"/>
      <point x="566" y="10" type="curve"/>
      <point x="565" y="10"/>
      <point x="487" y="6"/>
    </contour>
    <contour>
      <point x="514" y="-10" type="curve" smooth="yes"/>
      <point x="799" y="-10"/>
      <point x="997" y="136"/>
      <point x="997" y="355" type="curve" smooth="yes"/>
      <point x="997" y="574"/>
      <point x="799" y="720"/>
      <point x="514" y="720" type="curve" smooth="yes"/>
      <point x="230" y="720"/>
      <point x="32" y="574"/>
      <point x="32" y="355" type="curve" smooth="yes"/>
      <point x="32" y="136"/>
      <point x="230" y="-10"/>
    </contour>
    <contour>
      <point x="514" y="34" type="curve" smooth="yes"/>
      <point x="408" y="34"/>
      <point x="362" y="140"/>
      <point x="362" y="355" type="curve" smooth="yes"/>
      <point x="362" y="565"/>
      <point x="408" y="676"/>
      <point x="514" y="676" type="curve" smooth="yes"/>
      <point x="622" y="676"/>
      <point x="667" y="565"/>
      <point x="667" y="355" type="curve" smooth="yes"/>
      <point x="667" y="140"/>
      <point x="622" y="34"/>
    </contour>
  </outline>
</glyph>
<glyph name="U" format="2">
  <advance width="925"/>
  <unicode hex="0055"/>
  <outline>
    <contour>
      <point x="411" y="241" type="curve" smooth="yes"/>
      <point x="411" y="664" type="line" smooth="yes"/>
      <point x="411" y="671"/>
      <point x="443" y="674"/>
      <point x="469" y="674" type="curve" smooth="yes"/>
      <point x="480" y="674" type="line"/>
      <point x="480" y="710" type="line"/>
      <point x="22" y="710" type="line"/>
      <point x="22" y="674" type="line"/>
      <point x="34" y="674" type="line" smooth="yes"/>
      <point x="67" y="674"/>
      <point x="93" y="667"/>
      <point x="93" y="640" type="curve" smooth="yes"/>
      <point x="93" y="260" type="line" smooth="yes"/>
      <point x="93" y="74"/>
      <point x="246" y="-10"/>
      <point x="492" y="-10" type="curve" smooth="yes"/>
      <point x="687" y="-10"/>
      <point x="833" y="72"/>
      <point x="833" y="264" type="curve" smooth="yes"/>
      <point x="833" y="628" type="line" smooth="yes"/>
      <point x="833" y="663"/>
      <point x="858" y="674"/>
      <point x="891" y="674" type="curve" smooth="yes"/>
      <point x="904" y="674" type="line"/>
      <point x="904" y="710" type="line"/>
      <point x="688" y="710" type="line"/>
      <point x="688" y="674" type="line"/>
      <point x="700" y="674" type="line" smooth="yes"/>
      <point x="729" y="674"/>
      <point x="759" y="668"/>
      <point x="759" y="652" type="curve" smooth="yes"/>
      <point x="759" y="264" type="line" smooth="yes"/>
      <point x="759" y="126"/>
      <point x="690" y="62"/>
      <point x="580" y="62" type="curve" smooth="yes"/>
      <point x="477" y="62"/>
      <point x="411" y="110"/>
    </contour>
  </outline>
</glyph>
<glyph name="V" format="2">
  <advance width="884"/>
  <unicode hex="0056"/>
  <outline>
    <contour>
      <point x="593" y="107" type="line"/>
      <point x="384" y="664" type="line"/>
      <point x="384" y="670"/>
      <point x="408" y="674"/>
      <point x="427" y="674" type="curve" smooth="yes"/>
      <point x="447" y="674" type="line"/>
      <point x="447" y="710" type="line"/>
      <point x="8" y="710" type="line"/>
      <point x="8" y="674" type="line"/>
      <point x="14" y="674" type="line"/>
      <point x="39" y="674"/>
      <point x="53" y="670"/>
      <point x="63" y="643" type="curve" smooth="yes"/>
      <point x="335" y="0" type="line"/>
      <point x="552" y="0" type="line"/>
      <point x="816" y="623" type="line" smooth="yes"/>
      <point x="832" y="662"/>
      <point x="841" y="674"/>
      <point x="871" y="674" type="curve"/>
      <point x="877" y="674" type="line"/>
      <point x="877" y="710" type="line"/>
      <point x="713" y="710" type="line"/>
      <point x="713" y="674" type="line"/>
      <point x="729" y="674" type="line" smooth="yes"/>
      <point x="769" y="674"/>
      <point x="780" y="666"/>
      <point x="780" y="656" type="curve"/>
      <point x="564" y="130" type="line"/>
    </contour>
  </outline>
</glyph>
<glyph name="f" format="2">
  <advance width="540"/>
  <unicode hex="0066"/>
  <outline>
    <contour>
      <point x="-2" y="521" type="line"/>
      <point x="-2" y="481" type="line"/>
      <point x="530" y="481" type="line"/>
      <point x="530" y="521" type="line"/>
    </contour>
    <contour>
      <point x="579" y="750" type="line"/>
      <point x="541" y="756"/>
      <point x="497" y="759"/>
      <point x="449" y="759" type="curve" smooth="yes"/>
      <point x="242" y="759"/>
      <point x="91" y="702"/>
      <point x="91" y="566" type="curve" smooth="yes"/>
      <point x="91" y="66" type="line" smooth="yes"/>
      <point x="91" y="42"/>
      <point x="70" y="34"/>
      <point x="32" y="34" type="curve" smooth="yes"/>
      <point x="17" y="34" type="line"/>
      <point x="17" y="0" type="line"/>
      <point x="480" y="0" type="line"/>
      <point x="480" y="34" type="line"/>
      <point x="467" y="34" type="line" smooth="yes"/>
      <point x="431" y="34"/>
      <point x="389" y="37"/>
      <point x="389" y="50" type="curve" smooth="yes"/>
      <point x="389" y="599" type="line" smooth="yes"/>
      <point x="389" y="681"/>
      <point x="422" y="716"/>
      <point x="490" y="716" type="curve" smooth="yes"/>
      <point x="532" y="716"/>
      <point x="567" y="707"/>
      <point x="579" y="704" type="curve"/>
    </contour>
  </outline>
</glyph>
<glyph name="j" format="2">
  <advance width="417"/>
  <unicode hex="006A"/>
  <outline>
    <contour>
      <point x="60" y="-78" type="line" smooth="yes"/>
      <point x="60" y="-162"/>
      <point x="37" y="-194"/>
      <point x="-17" y="-194" type="curve" smooth="yes"/>
      <point x="-49" y="-194"/>
      <point x="-79" y="-187"/>
      <point x="-101" y="-182" type="curve"/>
      <point x="-101" y="-228" type="line"/>
      <point x="-80" y="-233"/>
      <point x="-34" y="-238"/>
      <point x="31" y="-238" type="curve" smooth="yes"/>
      <point x="259" y="-238"/>
      <point x="359" y="-180"/>
      <point x="359" y="-20" type="curve" smooth="yes"/>
      <point x="359" y="521" type="line"/>
      <point x="1" y="521" type="line"/>
      <point x="1" y="486" type="line"/>
      <point x="14" y="484" type="line" smooth="yes"/>
      <point x="41" y="478"/>
      <point x="60" y="472"/>
      <point x="60" y="450" type="curve" smooth="yes"/>
    </contour>
    <contour>
      <point x="207" y="604" type="curve" smooth="yes"/>
      <point x="304" y="604"/>
      <point x="361" y="634"/>
      <point x="361" y="683" type="curve" smooth="yes"/>
      <point x="361" y="732"/>
      <point x="304" y="762"/>
      <point x="207" y="762" type="curve" smooth="yes"/>
      <point x="110" y="762"/>
      <point x="54" y="732"/>
      <point x="54" y="683" type="curve" smooth="yes"/>
      <point x="54" y="633"/>
      <point x="110" y="604"/>
    </contour>
  </outline>
</glyph>
<glyph name="m" format="2">
  <advance width="1260"/>
  <unicode hex="006D"/>
  <outline>
    <contour>
      <point x="17" y="0" type="line"/>
      <point x="396" y="0" type="line"/>
      <point x="396" y="34" type="line"/>
      <point x="392" y="34" type="line" smooth="yes"/>
      <point x="381" y="34"/>
      <point x="364" y="37"/>
      <point x="364" y="44" type="curve" smooth="yes"/>
      <point x="364" y="410" type="line"/>
      <point x="347" y="416" type="line"/>
      <point x="347" y="521" type="line"/>
      <point x="17" y="521" type="line"/>
      <point x="17" y="486" type="line"/>
      <point x="30" y="484" type="line" smooth="yes"/>
      <point x="55" y="478"/>
      <point x="65" y="472"/>
      <point x="65" y="450" type="curve" smooth="yes"/>
      <point x="65" y="64" type="line" smooth="yes"/>
      <point x="65" y="40"/>
      <point x="44" y="34"/>
      <point x="18" y="34" type="curve" smooth="yes"/>
      <point x="17" y="34" type="line"/>
    </contour>
    <contour>
      <point x="814" y="0" type="line"/>
      <point x="814" y="34" type="line"/>
      <point x="811" y="34" type="line" smooth="yes"/>
      <point x="796" y="34"/>
      <point x="783" y="38"/>
      <point x="783" y="51" type="curve" smooth="yes"/>
      <point x="783" y="360" type="line" smooth="yes"/>
      <point x="783" y="474"/>
      <point x="698" y="531"/>
      <point x="570" y="531" type="curve" smooth="yes"/>
      <point x="464" y="531"/>
      <point x="383" y="485"/>
      <point x="341" y="415" type="curve"/>
      <point x="356" y="362" type="line"/>
      <point x="376" y="424"/>
      <point x="409" y="462"/>
      <point x="447" y="462" type="curve" smooth="yes"/>
      <point x="476" y="462"/>
      <point x="484" y="436"/>
      <point x="484" y="374" type="curve" smooth="yes"/>
      <point x="484" y="44" type="line" smooth="yes"/>
      <point x="484" y="37"/>
      <point x="460" y="34"/>
      <point x="442" y="34" type="curve" smooth="yes"/>
      <point x="441" y="34" type="line"/>
      <point x="441" y="0" type="line"/>
    </contour>
    <contour>
      <point x="1249" y="0" type="line"/>
      <point x="1249" y="34" type="line"/>
      <point x="1247" y="34" type="line" smooth="yes"/>
      <point x="1221" y="34"/>
      <point x="1202" y="40"/>
      <point x="1202" y="64" type="curve" smooth="yes"/>
      <point x="1202" y="360" type="line" smooth="yes"/>
      <point x="1202" y="474"/>
      <point x="1116" y="531"/>
      <point x="989" y="531" type="curve" smooth="yes"/>
      <point x="882" y="531"/>
      <point x="802" y="485"/>
      <point x="759" y="414" type="curve"/>
      <point x="774" y="362" type="line"/>
      <point x="795" y="424"/>
      <point x="828" y="462"/>
      <point x="865" y="462" type="curve" smooth="yes"/>
      <point x="894" y="462"/>
      <point x="902" y="436"/>
      <point x="902" y="374" type="curve" smooth="yes"/>
      <point x="902" y="44" type="line" smooth="yes"/>
      <point x="902" y="37"/>
      <point x="884" y="34"/>
      <point x="872" y="34" type="curve" smooth="yes"/>
      <point x="871" y="34" type="line"/>
      <point x="871" y="0" type="line"/>
    </contour>
  </outline>
</glyph>
<glyph name="y" format="2">
  <advance width="760"/>
  <unicode hex="0079"/>
  <outline>
    <contour>
      <point x="361" y="-56" type="line"/>
      <point x="447" y="87" type="line"/>
      <point x="510" y="185" type="line"/>
      <point x="352" y="477" type="line"/>
      <point x="352" y="484"/>
      <point x="382" y="486"/>
      <point x="414" y="486" type="curve" smooth="yes"/>
      <point x="415" y="486" type="line"/>
      <point x="415" y="521" type="line"/>
      <point x="6" y="521" type="line"/>
      <point x="6" y="486" type="line"/>
      <point x="9" y="486" type="line"/>
      <point x="34" y="486"/>
      <point x="45" y="478"/>
      <point x="58" y="456" type="curve" smooth="yes"/>
    </contour>
    <contour>
      <point x="171" y="-232" type="curve" smooth="yes"/>
      <point x="284" y="-232"/>
      <point x="344" y="-164"/>
      <point x="436" y="-5" type="curve" smooth="yes"/>
      <point x="694" y="440" type="line" smooth="yes"/>
      <point x="716" y="476"/>
      <point x="725" y="486"/>
      <point x="754" y="486" type="curve"/>
      <point x="754" y="486" type="line"/>
      <point x="754" y="521" type="line"/>
      <point x="574" y="521" type="line"/>
      <point x="574" y="486" type="line"/>
      <point x="578" y="486" type="line" smooth="yes"/>
      <point x="613" y="486"/>
      <point x="637" y="478"/>
      <point x="637" y="465" type="curve"/>
      <point x="418" y="72" type="line"/>
      <point x="380" y="20" type="line"/>
      <point x="341" y="-98"/>
      <point x="294" y="-122"/>
      <point x="206" y="-122" type="curve" smooth="yes"/>
      <point x="144" y="-122"/>
      <point x="86" y="-100"/>
      <point x="74" y="-98" type="curve"/>
      <point x="74" y="-214" type="line"/>
      <point x="95" y="-223"/>
      <point x="128" y="-232"/>
    </contour>
  </outline>
</glyph>
<glyph name="ordfeminine" format="2">
  <advance width="646"/>
  <unicode hex="00AA"/>
  <outline>
    <contour>
      <point x="371" y="555" type="line"/>
      <point x="133" y="534"/>
      <point x="21" y="501"/>
      <point x="21" y="410" type="curve" smooth="yes"/>
      <point x="21" y="347"/>
      <point x="86" y="311"/>
      <point x="204" y="311" type="curve" smooth="yes"/>
      <point x="306" y="311"/>
      <point x="357" y="350"/>
      <point x="394" y="417" type="curve"/>
      <point x="440" y="460"/>
      <point x="366" y="443"/>
      <point x="363" y="442" type="curve"/>
      <point x="354" y="403"/>
      <point x="333" y="372"/>
      <point x="303" y="372" type="curve" smooth="yes"/>
      <point x="276" y="372"/>
      <point x="262" y="386"/>
      <point x="262" y="422" type="curve" smooth="yes"/>
      <point x="262" y="472"/>
      <point x="291" y="507"/>
      <point x="371" y="516" type="curve"/>
    </contour>
    <contour>
      <point x="368" y="320" type="line"/>
      <point x="632" y="320" type="line"/>
      <point x="632" y="366" type="line"/>
      <point x="626" y="368" type="line"/>
      <point x="606" y="370"/>
      <point x="596" y="373"/>
      <point x="596" y="392" type="curve" smooth="yes"/>
      <point x="596" y="584" type="line" smooth="yes"/>
      <point x="596" y="680"/>
      <point x="477" y="720"/>
      <point x="325" y="720" type="curve" smooth="yes"/>
      <point x="182" y="720"/>
      <point x="90" y="690"/>
      <point x="56" y="655" type="curve"/>
      <point x="56" y="594" type="line"/>
      <point x="252" y="594" type="line"/>
      <point x="252" y="674" type="line"/>
      <point x="207" y="672"/>
      <point x="190" y="649"/>
      <point x="226" y="628" type="curve"/>
      <point x="238" y="650"/>
      <point x="265" y="666"/>
      <point x="300" y="666" type="curve" smooth="yes"/>
      <point x="336" y="666"/>
      <point x="356" y="647"/>
      <point x="356" y="602" type="curve" smooth="yes"/>
      <point x="356" y="396" type="line"/>
      <point x="368" y="402" type="line"/>
    </contour>
  </outline>
</glyph>
<glyph name="germandbls" format="2">
  <advance width="878"/>
  <unicode hex="00DF"/>
  <outline>
    <contour>
      <point x="-2" y="516" type="line"/>
      <point x="-2" y="458" type="line"/>
      <point x="170" y="458" type="line"/>
      <point x="170" y="516" type="line"/>
    </contour>
    <contour>
      <point x="15" y="0" type="line"/>
      <point x="389" y="0" type="line"/>
      <point x="389" y="562" type="line" smooth="yes"/>
      <point x="389" y="660"/>
      <point x="409" y="688"/>
      <point x="457" y="688" type="curve" smooth="yes"/>
      <point x="498" y="688"/>
      <point x="518" y="654"/>
      <point x="518" y="591" type="curve" smooth="yes"/>
      <point x="518" y="499"/>
      <point x="477" y="456"/>
      <point x="434" y="447" type="curve"/>
      <point x="434" y="394" type="line"/>
      <point x="440" y="394" type="line" smooth="yes"/>
      <point x="504" y="389"/>
      <point x="551" y="312"/>
      <point x="551" y="198" type="curve" smooth="yes"/>
      <point x="551" y="90"/>
      <point x="514" y="51"/>
      <point x="477" y="51" type="curve" smooth="yes"/>
      <point x="455" y="51"/>
      <point x="441" y="65"/>
      <point x="434" y="67" type="curve"/>
      <point x="434" y="8" type="line"/>
      <point x="462" y="0"/>
      <point x="517" y="-11"/>
      <point x="577" y="-11" type="curve" smooth="yes"/>
      <point x="751" y="-11"/>
      <point x="856" y="58"/>
      <point x="856" y="191" type="curve" smooth="yes"/>
      <point x="856" y="317"/>
      <point x="718" y="414"/>
      <point x="503" y="439" type="curve"/>
      <point x="502" y="437"/>
      <point x="478" y="425"/>
      <point x="477" y="422" type="curve"/>
      <point x="647" y="425"/>
      <point x="790" y="488"/>
      <point x="790" y="592" type="curve" smooth="yes"/>
      <point x="790" y="688"/>
      <point x="667" y="750"/>
      <point x="452" y="750" type="curve" smooth="yes"/>
      <point x="189" y="750"/>
      <point x="89" y="684"/>
      <point x="89" y="549" type="curve" smooth="yes"/>
      <point x="89" y="86" type="line" smooth="yes"/>
      <point x="89" y="62"/>
      <point x="69" y="53"/>
      <point x="30" y="53" type="curve" smooth="yes"/>
      <point x="15" y="53" type="line"/>
    </contour>
  </outline>
</glyph>
<glyph name="Aogonek" format="2">
  <advance width="933"/>
  <unicode hex="0104"/>
  <outline>
    <contour>
      <point x="202" y="298" type="line"/>
      <point x="182" y="236" type="line"/>
      <point x="527" y="236" type="line"/>
      <point x="526" y="298" type="line"/>
    </contour>
    <contour>
      <point x="8" y="0" type="line"/>
      <point x="262" y="0" type="line"/>
      <point x="262" y="56" type="line"/>
      <point x="246" y="56" type="line" smooth="yes"/>
      <point x="213" y="56"/>
      <point x="183" y="65"/>
      <point x="183" y="76" type="curve"/>
      <point x="431" y="710" type="line"/>
      <point x="312" y="710" type="line"/>
      <point x="72" y="107" type="line" smooth="yes"/>
      <point x="59" y="70"/>
      <point x="43" y="56"/>
      <point x="14" y="56" type="curve"/>
      <point x="8" y="56" type="line"/>
    </contour>
    <contour>
      <point x="652" y="48" type="curve"/>
      <point x="451" y="-9"/>
      <point x="348" y="-62"/>
      <point x="348" y="-140" type="curve" smooth="yes"/>
      <point x="348" y="-206"/>
      <point x="421" y="-241"/>
      <point x="532" y="-241" type="curve" smooth="yes"/>
      <point x="635" y="-241"/>
      <point x="693" y="-216"/>
      <point x="738" y="-178" type="curve"/>
      <point x="680" y="-142" type="line"/>
      <point x="667" y="-156"/>
      <point x="645" y="-172"/>
      <point x="611" y="-172" type="curve" smooth="yes"/>
      <point x="581" y="-172"/>
      <point x="563" y="-156"/>
      <point x="563" y="-120" type="curve" smooth="yes"/>
      <point x="563" y="-80"/>
      <point x="590" y="-34"/>
      <point x="706" y="16" type="curve"/>
      <point x="690" y="23"/>
      <point x="664" y="36"/>
    </contour>
    <contour>
      <point x="575" y="0" type="line"/>
      <point x="925" y="0" type="line"/>
      <point x="925" y="56" type="line"/>
      <point x="919" y="56" type="line"/>
      <point x="889" y="56"/>
      <point x="870" y="61"/>
      <point x="861" y="87" type="curve" smooth="yes"/>
      <point x="614" y="710" type="line"/>
      <point x="358" y="710" type="line"/>
      <point x="324" y="650" type="line"/>
    </contour>
  </outline>
</glyph>
<glyph name="hbar" format="2">
  <advance width="859"/>
  <unicode hex="0127"/>
  <outline>
    <contour>
      <point x="855" y="0" type="line"/>
      <point x="855" y="53" type="line"/>
      <point x="852" y="53" type="line" smooth="yes"/>
      <point x="827" y="53"/>
      <point x="807" y="60"/>
      <point x="807" y="84" type="curve" smooth="yes"/>
      <point x="807" y="355" type="line" smooth="yes"/>
      <point x="807" y="467"/>
      <point x="718" y="526"/>
      <point x="583" y="526" type="curve" smooth="yes"/>
      <point x="468" y="526"/>
      <point x="384" y="474"/>
      <point x="343" y="396" type="curve"/>
      <point x="358" y="340" type="line"/>
      <point x="382" y="406"/>
      <point x="415" y="445"/>
      <point x="458" y="445" type="curve" smooth="yes"/>
      <point x="495" y="445"/>
      <point x="507" y="420"/>
      <point x="507" y="360" type="curve" smooth="yes"/>
      <point x="507" y="62" type="line" smooth="yes"/>
      <point x="507" y="56"/>
      <point x="483" y="53"/>
      <point x="466" y="53" type="curve" smooth="yes"/>
      <point x="465" y="53" type="line"/>
      <point x="465" y="0" type="line"/>
    </contour>
    <contour>
      <point x="65" y="740" type="line"/>
      <point x="65" y="84" type="line" smooth="yes"/>
      <point x="65" y="60"/>
      <point x="43" y="53"/>
      <point x="18" y="53" type="curve" smooth="yes"/>
      <point x="17" y="53" type="line"/>
      <point x="17" y="0" type="line"/>
      <point x="407" y="0" type="line"/>
      <point x="407" y="53" type="line"/>
      <point x="403" y="53" type="line" smooth="yes"/>
      <point x="387" y="53"/>
      <point x="364" y="56"/>
      <point x="364" y="62" type="curve"/>
      <point x="364" y="740" type="line"/>
    </contour>
    <contour>
      <point x="556" y="645" type="line"/>
      <point x="4" y="645" type="line"/>
      <point x="4" y="582" type="line"/>
      <point x="556" y="582" type="line"/>
    </contour>
  </outline>
</glyph>
<glyph name="Tbar" format="2">
  <advance width="948"/>
  <unicode hex="0166"/>
  <outline>
    <contour>
      <point x="128" y="361" type="line"/>
      <point x="128" y="295" type="line"/>
      <point x="820" y="295" type="line"/>
      <point x="820" y="361" type="line"/>
    </contour>
    <component base="T" xOffset="92"/>
  </outline>
</glyph>
<glyph name="dotaccent" format="2">
  <advance width="630"/>
  <unicode hex="02D9"/>
  <anchor x="315" y="526.0" name="_top"/>
  <outline>
    <contour>
      <point x="313" y="599" type="curve" smooth="yes"/>
      <point x="409" y="599"/>
      <point x="466" y="628"/>
      <point x="466" y="678" type="curve" smooth="yes"/>
      <point x="466" y="727"/>
      <point x="409" y="756"/>
      <point x="313" y="756" type="curve" smooth="yes"/>
      <point x="217" y="756"/>
      <point x="159" y="727"/>
      <point x="159" y="678" type="curve" smooth="yes"/>
      <point x="159" y="628"/>
      <point x="217" y="599"/>
    </contour>
  </outline>
</glyph>
<glyph name="ring" format="2">
  <advance width="631"/>
  <unicode hex="02DA"/>
  <anchor x="315" y="526.0" name="_top"/>
  <outline>
    <contour>
      <point x="268" y="671" type="curve" smooth="yes"/>
      <point x="268" y="713"/>
      <point x="290" y="730"/>
      <point x="315" y="730" type="curve" smooth="yes"/>
      <point x="341" y="730"/>
      <point x="362" y="713"/>
      <point x="362" y="671" type="curve" smooth="yes"/>
      <point x="362" y="630"/>
      <point x="343" y="612"/>
      <point x="315" y="612" type="curve" smooth="yes"/>
      <point x="288" y="612"/>
      <point x="268" y="630"/>
    </contour>
    <contour>
      <point x="500" y="671" type="curve" smooth="yes"/>
      <point x="500" y="740"/>
      <point x="422" y="776"/>
      <point x="315" y="776" type="curve" smooth="yes"/>
      <point x="208" y="776"/>
      <point x="130" y="740"/>
      <point x="130" y="671" type="curve" smooth="yes"/>
      <point x="130" y="602"/>
      <point x="208" y="566"/>
      <point x="315" y="566" type="curve" smooth="yes"/>
      <point x="422" y="566"/>
      <point x="500" y="602"/>
    </contour>
  </outline>
</glyph>
<glyph name="minus" format="2">
  <advance width="707"/>
  <unicode hex="2212"/>
  <outline>
    <contour>
      <point x="640" y="362" type="line"/>
      <point x="67" y="362" type="line"/>
      <point x="67" y="320" type="line"/>
      <point x="640" y="320" type="line"/>
    </contour>
  </outline>
</glyph>
<glyph name="notequal" format="2">
  <advance width="707"/>
  <unicode hex="2260"/>
  <outline>
    <contour>
      <point x="469" y="608" type="line"/>
      <point x="53" y="60" type="line"/>
      <point x="212" y="60" type="line"/>
      <point x="628" y="608" type="line"/>
    </contour>
    <component base="equal" xOffset="54" yOffset="1"/>
  </outline>
</glyph>
<glyph name="hook" format="2">
  <advance width="643"/>
  <unicode hex="2440"/>
  <anchor x="295" y="517.0" name="_top"/>
  <outline>
    <contour>
      <point x="89" y="694" type="line"/>
      <point x="95" y="746"/>
      <point x="149" y="792"/>
      <point x="288" y="792" type="curve" smooth="yes"/>
      <point x="414" y="792"/>
      <point x="479" y="757"/>
      <point x="479" y="700" type="curve" smooth="yes"/>
      <point x="479" y="635"/>
      <point x="401" y="608"/>
      <point x="272" y="600" type="curve"/>
      <point x="331" y="633" type="line"/>
      <point x="331" y="566" type="line"/>
      <point x="216" y="566" type="line"/>
      <point x="216" y="636" type="line"/>
      <point x="289" y="642"/>
      <point x="318" y="660"/>
      <point x="318" y="695" type="curve" smooth="yes"/>
      <point x="318" y="720"/>
      <point x="304" y="738"/>
      <point x="276" y="738" type="curve" smooth="yes"/>
      <point x="244" y="738"/>
      <point x="229" y="720"/>
      <point x="225" y="694" type="curve"/>
    </contour>
  </outline>
</glyph>
<glyph name="E.alt" format="2">
  <advance width="811"/>
  <outline>
    <contour>
      <point x="785" y="211" type="line"/>
      <point x="725" y="211" type="line"/>
      <point x="692" y="94" type="line" smooth="yes"/>
      <point x="683" y="55"/>
      <point x="649" y="44"/>
      <point x="551" y="44" type="curve" smooth="yes"/>
      <point x="413" y="44" type="line"/>
      <point x="413" y="666" type="line"/>
      <point x="559" y="666" type="line" smooth="yes"/>
      <point x="626" y="666"/>
      <point x="666" y="655"/>
      <point x="675" y="617" type="curve" smooth="yes"/>
      <point x="700" y="524" type="line"/>
      <point x="758" y="524" type="line"/>
      <point x="758" y="710" type="line"/>
      <point x="25" y="710" type="line"/>
      <point x="25" y="674" type="line"/>
      <point x="37" y="674" type="line" smooth="yes"/>
      <point x="70" y="674"/>
      <point x="95" y="667"/>
      <point x="95" y="638" type="curve" smooth="yes"/>
      <point x="95" y="72" type="line" smooth="yes"/>
      <point x="95" y="43"/>
      <point x="71" y="36"/>
      <point x="37" y="36" type="curve" smooth="yes"/>
      <point x="25" y="36" type="line"/>
      <point x="25" y="0" type="line"/>
      <point x="785" y="0" type="line"/>
    </contour>
    <contour>
      <point x="348" y="342" type="line"/>
      <point x="525" y="342" type="line"/>
      <point x="562" y="342"/>
      <point x="574" y="316"/>
      <point x="574" y="287" type="curve" smooth="yes"/>
      <point x="574" y="279" type="line"/>
      <point x="637" y="279" type="line"/>
      <point x="637" y="448" type="line"/>
      <point x="574" y="448" type="line"/>
      <point x="574" y="440" type="line" smooth="yes"/>
      <point x="574" y="410"/>
      <point x="562" y="384"/>
      <point x="525" y="384" type="curve"/>
      <point x="348" y="384" type="line"/>
    </contour>
  </outline>
</glyph>
<glyph name="F.alt" format="2">
  <advance width="789"/>
  <outline>
    <contour>
      <point x="25" y="0" type="line"/>
      <point x="509" y="0" type="line"/>
      <point x="509" y="36" type="line"/>
      <point x="487" y="36" type="line" smooth="yes"/>
      <point x="454" y="36"/>
      <point x="413" y="38"/>
      <point x="413" y="67" type="curve" smooth="yes"/>
      <point x="413" y="666" type="line"/>
      <point x="564" y="666" type="line" smooth="yes"/>
      <point x="630" y="666"/>
      <point x="669" y="655"/>
      <point x="680" y="617" type="curve" smooth="yes"/>
      <point x="706" y="524" type="line"/>
      <point x="764" y="524" type="line"/>
      <point x="764" y="710" type="line"/>
      <point x="25" y="710" type="line"/>
      <point x="25" y="674" type="line"/>
      <point x="37" y="674" type="line" smooth="yes"/>
      <point x="70" y="674"/>
      <point x="95" y="667"/>
      <point x="95" y="638" type="curve" smooth="yes"/>
      <point x="95" y="72" type="line" smooth="yes"/>
      <point x="95" y="43"/>
      <point x="71" y="36"/>
      <point x="37" y="36" type="curve" smooth="yes"/>
      <point x="25" y="36" type="line"/>
    </contour>
    <contour>
      <point x="363" y="334" type="line"/>
      <point x="541" y="334" type="line"/>
      <point x="578" y="334"/>
      <point x="590" y="308"/>
      <point x="590" y="278" type="curve" smooth="yes"/>
      <point x="590" y="270" type="line"/>
      <point x="654" y="270" type="line"/>
      <point x="654" y="440" type="line"/>
      <point x="590" y="440" type="line"/>
      <point x="590" y="432" type="line" smooth="yes"/>
      <point x="590" y="402"/>
      <point x="578" y="376"/>
      <point x="541" y="376" type="curve"/>
      <point x="363" y="376" type="line"/>
    </contour>
  </outline>
</glyph>
<glyph name="acute.pl" format="2">
  <advance width="630"/>
  <anchor x="273" y="489.0" name="_top"/>
  <outline>
    <contour>
      <point x="204" y="684" type="curve" smooth="yes"/>
      <point x="200" y="586" type="line"/>
      <point x="200" y="567" type="line"/>
      <point x="296" y="567" type="line"/>
      <point x="347" y="638" type="line" smooth="yes"/>
      <point x="401" y="680"/>
      <point x="422" y="706"/>
      <point x="422" y="732" type="curve" smooth="yes"/>
      <point x="422" y="763"/>
      <point x="391" y="786"/>
      <point x="323" y="786" type="curve" smooth="yes"/>
      <point x="242" y="786"/>
      <point x="207" y="752"/>
    </contour>
  </outline>
</glyph>
<glyph name="acute.ucpl" format="2">
  <advance width="630"/>
  <anchor x="237" y="694.0" name="_top"/>
  <outline>
    <contour>
      <point x="203" y="855" type="curve" smooth="yes"/>
      <point x="199" y="770" type="line"/>
      <point x="199" y="752" type="line"/>
      <point x="295" y="752" type="line"/>
      <point x="345" y="805" type="line" smooth="yes"/>
      <point x="400" y="850"/>
      <point x="421" y="877"/>
      <point x="421" y="904" type="curve" smooth="yes"/>
      <point x="421" y="934"/>
      <point x="390" y="958"/>
      <point x="322" y="958" type="curve" smooth="yes"/>
      <point x="241" y="958"/>
      <point x="206" y="924"/>
    </contour>
  </outline>
</glyph>
<glyph name="circumflex.uc" format="2">
  <advance width="629"/>
  <anchor x="309" y="694.0" name="_top"/>
  <outline>
    <contour>
      <point x="449" y="910" type="line"/>
      <point x="592" y="771" type="line"/>
      <point x="592" y="754" type="line"/>
      <point x="444" y="754" type="line"/>
      <point x="248" y="850" type="line"/>
      <point x="418" y="850" type="line"/>
      <point x="221" y="754" type="line"/>
      <point x="86" y="754" type="line"/>
      <point x="86" y="771" type="line"/>
      <point x="230" y="910" type="line"/>
    </contour>
  </outline>
</glyph>
<glyph name="hungarumlaut.uc" format="2">
  <advance width="630"/>
  <anchor x="339" y="694.0" name="_top"/>
  <outline>
    <contour>
      <point x="134" y="850" type="curve" smooth="yes"/>
      <point x="126" y="768" type="line"/>
      <point x="126" y="748" type="line"/>
      <point x="222" y="748" type="line"/>
      <point x="274" y="794" type="line" smooth="yes"/>
      <point x="331" y="833"/>
      <point x="344" y="855"/>
      <point x="344" y="884" type="curve" smooth="yes"/>
      <point x="344" y="915"/>
      <point x="314" y="938"/>
      <point x="247" y="938" type="curve" smooth="yes"/>
      <point x="169" y="938"/>
      <point x="141" y="910"/>
    </contour>
    <contour>
      <point x="391" y="850" type="curve" smooth="yes"/>
      <point x="384" y="768" type="line"/>
      <point x="384" y="748" type="line"/>
      <point x="479" y="748" type="line"/>
      <point x="532" y="794" type="line" smooth="yes"/>
      <point x="588" y="833"/>
      <point x="602" y="855"/>
      <point x="602" y="884" type="curve" smooth="yes"/>
      <point x="602" y="915"/>
      <point x="571" y="938"/>
      <point x="504" y="938" type="curve" smooth="yes"/>
      <point x="426" y="938"/>
      <point x="398" y="910"/>
    </contour>
  </outline>
</glyph>
<glyph name="lira.altprop" format="2">
  <advance width="796"/>
  <outline>
    <contour>
      <point x="41" y="466" type="line"/>
      <point x="41" y="409" type="line"/>
      <point x="607" y="409" type="line"/>
      <point x="607" y="466" type="line"/>
    </contour>
    <contour>
      <point x="41" y="314" type="line"/>
      <point x="41" y="256" type="line"/>
      <point x="607" y="256" type="line"/>
      <point x="607" y="314" type="line"/>
    </contour>
    <contour>
      <point x="40" y="0" type="line"/>
      <point x="768" y="0" type="line"/>
      <point x="768" y="238" type="line"/>
      <point x="656" y="238" type="line"/>
      <point x="644" y="162" type="line" smooth="yes"/>
      <point x="634" y="122"/>
      <point x="600" y="112"/>
      <point x="502" y="112" type="curve"/>
      <point x="301" y="112" type="line"/>
      <point x="200" y="74" type="line"/>
      <point x="372" y="108"/>
      <point x="439" y="179"/>
      <point x="439" y="268" type="curve" smooth="yes"/>
      <point x="439" y="373"/>
      <point x="378" y="440"/>
      <point x="378" y="537" type="curve" smooth="yes"/>
      <point x="378" y="614"/>
      <point x="410" y="657"/>
      <point x="470" y="657" type="curve" smooth="yes"/>
      <point x="512" y="657"/>
      <point x="540" y="638"/>
      <point x="556" y="611" type="curve"/>
      <point x="586" y="630"/>
      <point x="575" y="653"/>
      <point x="535" y="654" type="curve"/>
      <point x="535" y="553" type="line"/>
      <point x="751" y="553" type="line"/>
      <point x="751" y="659" type="line"/>
      <point x="724" y="683"/>
      <point x="620" y="720"/>
      <point x="450" y="720" type="curve" smooth="yes"/>
      <point x="218" y="720"/>
      <point x="88" y="636"/>
      <point x="88" y="526" type="curve" smooth="yes"/>
      <point x="88" y="404"/>
      <point x="209" y="346"/>
      <point x="209" y="237" type="curve" smooth="yes"/>
      <point x="209" y="160"/>
      <point x="145" y="115"/>
      <point x="40" y="85" type="curve"/>
    </contour>
  </outline>
</glyph>
<glyph name="six.den" format="2">
  <advance width="506"/>
  <outline>
    <contour>
      <point x="451" y="332" type="line"/>
      <point x="295" y="321"/>
      <point x="213" y="272"/>
      <point x="213" y="154" type="curve" smooth="yes"/>
      <point x="213" y="60"/>
      <point x="228" y="36"/>
      <point x="255" y="36" type="curve" smooth="yes"/>
      <point x="282" y="36"/>
      <point x="290" y="64"/>
      <point x="290" y="124" type="curve" smooth="yes"/>
      <point x="290" y="172"/>
      <point x="283" y="205"/>
      <point x="249" y="205" type="curve" smooth="yes"/>
      <point x="225" y="205"/>
      <point x="207" y="182"/>
      <point x="190" y="151" type="curve"/>
      <point x="192" y="182" type="line"/>
      <point x="202" y="211"/>
      <point x="245" y="246"/>
      <point x="317" y="246" type="curve" smooth="yes"/>
      <point x="418" y="246"/>
      <point x="482" y="204"/>
      <point x="482" y="128" type="curve" smooth="yes"/>
      <point x="482" y="44"/>
      <point x="394" y="-6"/>
      <point x="258" y="-6" type="curve" smooth="yes"/>
      <point x="106" y="-6"/>
      <point x="23" y="46"/>
      <point x="23" y="152" type="curve" smooth="yes"/>
      <point x="23" y="274"/>
      <point x="169" y="364"/>
      <point x="440" y="373" type="curve"/>
    </contour>
  </outline>
</glyph>
<glyph name="whitediamond" format="2">
  <advance width="786"/>
  <outline>
    <contour>
      <point x="393" y="52" type="line"/>
      <point x="727" y="313" type="line"/>
      <point x="393" y="574" type="line"/>
      <point x="59" y="313" type="line"/>
    </contour>
    <contour>
      <point x="393" y="106" type="line"/>
      <point x="128" y="313" type="line"/>
      <point x="393" y="520" type="line"/>
      <point x="658" y="313" type="line"/>
    </contour>
  </outline>
</glyph>
<glyph name="zero.den" format="2">
  <advance width="523"/>
  <outline>
    <contour>
      <point x="262" y="366" type="curve" smooth="yes"/>
      <point x="129" y="366"/>
      <point x="27" y="294"/>
      <point x="27" y="179" type="curve" smooth="yes"/>
      <point x="27" y="64"/>
      <point x="129" y="-6"/>
      <point x="262" y="-6" type="curve" smooth="yes"/>
      <point x="393" y="-6"/>
      <point x="496" y="64"/>
      <point x="496" y="180" type="curve" smooth="yes"/>
      <point x="496" y="294"/>
      <point x="393" y="366"/>
    </contour>
    <contour>
      <point x="262" y="38" type="curve" smooth="yes"/>
      <point x="236" y="38"/>
      <point x="226" y="68"/>
      <point x="226" y="179" type="curve" smooth="yes"/>
      <point x="226" y="291"/>
      <point x="236" y="322"/>
      <point x="262" y="322" type="curve" smooth="yes"/>
      <point x="287" y="322"/>
      <point x="296" y="291"/>
      <point x="296" y="180" type="curve" smooth="yes"/>
      <point x="296" y="68"/>
      <point x="287" y="38"/>
    </contour>
  </outline>
</glyph>
